{"accessors" : [{"bufferView" : 0, "byteOffset" : 0, "componentType" : 5123, "count" : 12636, "type" : "SCALAR", "max" : [12635], "min" : [0]}, {"bufferView" : 1, "byteOffset" : 0, "componentType" : 5126, "count" : 12636, "type" : "VEC3", "max" : [375.9039611816406, 389.4652099609375, 313.6263427734375], "min" : [56.06949234008789, 91.7375259399414, 90.86609649658203], "name" : "POSITION"}, {"bufferView" : 1, "byteOffset" : 12, "componentType" : 5126, "count" : 12636, "type" : "VEC2", "max" : [0.9833459854125977, 0.9800369739532471], "min" : [0.026409000158309937, 0.01996299996972084], "name" : "TEXCOORD_0"}, {"bufferView" : 1, "byteOffset" : 20, "componentType" : 5126, "count" : 12636, "type" : "VEC3", "max" : [0.9996030926704407, 0.9995853900909424, 0.9984399676322937], "min" : [-0.999088704586029, -1.0000042915344238, -0.9998368620872498], "name" : "NORMAL"}], "asset" : {"generator" : "Aspose.3D 22.10", "version" : "2.0"}, "buffers" : [{"uri" : "data:application/octet-stream;base64,", "byteLength" : 429632}], "bufferViews" : [{"buffer" : 0, "byteOffset" : 0, "byteLength" : 25272, "target" : 34963}, {"buffer" : 0, "byteOffset" : 25276, "byteLength" : 404352, "byteStride" : 32, "target" : 34962}], "meshes" : [{"primitives" : [{"attributes" : {"POSITION" : 1, "TEXCOORD_0" : 2, "NORMAL" : 3}, "indices" : 0, "mode" : 4}], "name" : ""}], "nodes" : [{"mesh" : 0, "name" : "Duck:Node_2"}], "scene" : 0, "scenes" : [{"nodes" : [0]}]}